# xmcd
#
# Track frame offsets:
#	150
#	18052
#	36657
#	63692
#	87207
#	109085
#	146092
#	165995
#	193915
#	220740
#	236765
#	280720
#	306352
#
# Disc length: 4321
#
# Revision: 1
# Processed by: cddbd v1.5.1PL0 Copyright (c) Steve Scherf et al.
# Submitted via: ExactAudioCopy v0.95a5
# Normalized: r0:TDELIM( - )
#
DISCID=bb10df0d
DTITLE=Various Artist - Today's Blues Masters vol. 2
DYEAR=1994
DGENRE=Blues
TTITLE0=Alvin Lee - Wake Up Mona
TTITLE1=John Mayall - I'm a Sucker For Love
TTITLE2=Gary Moore - All Time Low
TTITLE3=J.J. Cale - Pack My Jack
TTITLE4=Paul Rodgers - Muddy Water Blues
TTITLE5=Erik Clapton - Double Trouble
TTITLE6=Johnny Winter - If You Get a Good Woman
TTITLE7=Glen Hughes - Hey Buddy (You Get Me Wrong)
TTITLE8=Mick Taylor - Laundromat Blues
TTITLE9=Dr. John - Since I Fell For You
TTITLE10=Jimmy Page and Albert King - One Lone Kiss
TTITLE11=The Jeff Healey Band - Blue Jean Blues
TTITLE12=Van Morrison and John Lee Hooker - Wasted Years
EXTD=
EXTT0=
EXTT1=
EXTT2=
EXTT3=
EXTT4=
EXTT5=
EXTT6=
EXTT7=
EXTT8=
EXTT9=
EXTT10=
EXTT11=
EXTT12=
PLAYORDER=
